Coordinates
version=1
nRows=24
nColumns=24
inDegrees=yes

Units are S.I. units (second, meters, Newtons, ...)
Angles are in degrees.

endheader
time	pelvis_tilt	pelvis_list	pelvis_rotation	pelvis_tx	pelvis_ty	pelvis_tz	hip_flexion_r	hip_adduction_r	hip_rotation_r	knee_angle_r	ankle_angle_r	subtalar_angle_r	mtp_angle_r	hip_flexion_l	hip_adduction_l	hip_rotation_l	knee_angle_l	ankle_angle_l	subtalar_angle_l	mtp_angle_l	lumbar_extension	lumbar_bending	lumbar_rotation
      4.22000000	     -9.60766202	      2.19590365	     -8.42302876	     -0.58732104	     -0.04978259	      0.64030028	     -7.03867102	     -0.26626021	      3.04084796	    -11.76666177	     14.66263607	      1.77927220	      6.25809935	     39.70841213	     -3.04265545	    -31.41230687	    -17.13581420	     -0.76381667	     23.84304150	     -9.49854420	      6.27969402	     -0.60321380	     12.42893820
      4.22500000	     -9.67840822	      2.60844065	     -8.56423922	     -0.58004488	     -0.05086821	      0.64015285	     -7.09693567	     -0.79908308	      3.06063300	    -12.33110993	     14.60302266	      1.84637820	      6.28744826	     39.71351185	     -2.68745179	    -31.50905998	    -17.43065861	     -1.76343347	     22.63430834	     -8.33664447	      6.46753239	     -1.08115034	     12.53573108
      4.23000000	     -9.73968212	      3.04230219	     -8.69617355	     -0.57272877	     -0.05187898	      0.64000415	     -7.14860573	     -1.35884073	      3.07883140	    -12.91904964	     14.48344371	      1.92822910	      6.33101079	     39.74389558	     -2.32465990	    -31.50550554	    -17.83509701	     -2.82345970	     21.32298805	     -7.26009874	      6.65339648	     -1.58517024	     12.62801153
      4.23500000	     -9.78330917	      3.47340962	     -8.87165628	     -0.56547798	     -0.05278686	      0.63989692	     -7.18127766	     -1.92409542	      3.21182105	    -13.55437040	     14.30143008	      2.01301479	      6.40082531	     39.80409612	     -2.01222846	    -31.41863245	    -18.39417203	     -3.78173095	     19.94443289	     -6.63761185	      6.80924021	     -2.08246251	     12.75802434
      4.24000000	     -9.82942067	      3.95324636	     -8.91590939	     -0.55802402	     -0.05364046	      0.63968449	     -7.22067607	     -2.53640096	      3.08566045	    -14.19601320	     14.03702070	      2.14369801	      6.49252495	     39.90466690	     -1.58135598	    -31.15167002	    -19.01248274	     -4.82956264	     18.48040655	     -5.81446508	      7.00091450	     -2.65675857	     12.76039263
      4.24500000	     -9.85639423	      4.40535949	     -9.05514010	     -0.55065894	     -0.05436846	      0.63954840	     -7.24095406	     -3.13287869	      3.21191367	    -14.87752919	     13.68268207	      2.27693072	      6.61040253	     40.03262205	     -1.25686962	    -30.87055517	    -19.79871514	     -5.63450853	     17.04341703	     -5.50343914	      7.15992934	     -3.18560932	     12.81791469
      4.25000000	     -9.87908824	      4.86724926	     -9.09614666	     -0.54322895	     -0.05503617	      0.63929190	     -7.23807693	     -3.74033273	      3.15753667	    -15.63100722	     13.25161211	      2.46562947	      6.78685049	     40.19438082	     -0.85974809	    -30.42390681	    -20.65333124	     -6.36468560	     15.61009790	     -5.26246271	      7.31597053	     -3.73776732	     12.80890167
      4.25500000	     -9.90725800	      5.35015768	     -9.18745683	     -0.53569390	     -0.05561845	      0.63915407	     -7.20657132	     -4.36528806	      3.27846652	    -16.41204739	     12.69900292	      2.54700960	      6.92424781	     40.37958350	     -0.51282572	    -30.10499660	    -21.61982598	     -6.84612520	     14.42820898	     -5.25948567	      7.50743971	     -4.30451521	     12.86923673
      4.26000000	     -9.92217954	      5.76784922	     -9.21315973	     -0.52823285	     -0.05612541	      0.63886738	     -7.15030409	     -4.93611194	      3.24455278	    -17.27548680	     12.07687199	      2.82076933	      7.16936242	     40.57202036	     -0.14452360	    -29.51039492	    -22.60757338	     -7.23980816	     13.12985253	     -5.28170464	      7.65491629	     -4.81436565	     12.83683507
      4.26500000	     -9.93834750	      6.14846867	     -9.16917280	     -0.52072280	     -0.05659280	      0.63846553	     -7.06595995	     -5.47632116	      3.10004478	    -18.21329243	     11.36234584	      3.20572713	      7.51275399	     40.77127792	      0.22885958	    -28.92805935	    -23.63776197	     -7.46497123	     12.02712054	     -5.31879045	      7.79457497	     -5.28551177	     12.72918626
      4.27000000	     -9.95166329	      6.49194886	     -9.11169496	     -0.51320884	     -0.05697285	      0.63803219	     -6.93817266	     -5.98745449	      2.93393017	    -19.23626322	     10.52936404	      3.66838432	      7.95093785	     40.94514567	      0.57826013	    -28.39510494	    -24.66103813	     -7.53903643	     11.10819770	     -5.37107418	      7.92372210	     -5.71557115	     12.60766358
      4.27500000	     -9.97725761	      6.80979729	     -9.02618875	     -0.50569540	     -0.05723904	      0.63756677	     -6.75155764	     -6.48088590	      2.73411844	    -20.33512006	      9.55467888	      4.22391450	      8.52889109	     41.08954700	      0.92924455	    -27.88113521	    -25.62436039	     -7.52248576	     10.36697800	     -5.43308799	      8.06064669	     -6.12103492	     12.44691594
      4.28000000	     -9.99075708	      7.08172514	     -8.94508634	     -0.49823031	     -0.05740694	      0.63707929	     -6.52141296	     -6.93229482	      2.57507829	    -21.52605592	      8.46210318	      4.76655594	      9.13709823	     41.17628980	      1.24258861	    -27.46326856	    -26.53736344	     -7.37321448	      9.75621781	     -5.43555534	      8.16930023	     -6.47312340	     12.30734550
      4.28500000	    -10.00890597	      7.32356044	     -8.82746942	     -0.49078346	     -0.05745899	      0.63655419	     -6.24092147	     -7.35721654	      2.38808295	    -22.79224889	      7.22948262	      5.34710157	      9.81942437	     41.20710680	      1.56015129	    -27.10225227	    -27.35386953	     -7.15768469	      9.28429135	     -5.35977088	      8.27426230	     -6.79715356	     12.13469336
      4.29000000	    -10.02945574	      7.54299493	     -8.69249174	     -0.48337928	     -0.05737534	      0.63598711	     -5.90266488	     -7.76660352	      2.20760793	    -24.13179726	      5.86030860	      5.95263517	     10.58347386	     41.16967430	      1.88617819	    -26.79304620	    -28.04762127	     -6.89998989	      8.90171073	     -5.18712833	      8.37374327	     -7.09482096	     11.94988319
      4.29500000	    -10.02674412	      7.77884882	     -8.52461827	     -0.47596310	     -0.05710895	      0.63539781	     -5.55566859	     -8.19516674	      2.03185968	    -25.48145160	      4.29439000	      6.35265433	     11.76247065	     41.02109983	      2.28295161	    -26.50662688	    -28.56705584	     -6.65521838	      8.55252408	     -4.81824774	      8.45466787	     -7.42140117	     11.75675302
      4.30000000	    -10.05797967	      7.94178709	     -8.37398490	     -0.46875211	     -0.05676791	      0.63478229	     -5.07718248	     -8.55086092	      1.89914541	    -26.97745490	      2.69241076	      6.95090159	     12.53657463	     40.86220658	      2.59190172	    -26.31165976	    -29.02412046	     -6.35612156	      8.34423091	     -4.39987374	      8.53647479	     -7.65241692	     11.56965130
      4.30500000	    -10.08079861	      8.07239819	     -8.20097793	     -0.46162537	     -0.05631025	      0.63414035	     -4.55637737	     -8.87193891	      1.78591896	    -28.54507146	      1.04254100	      7.62006671	     13.01825018	     40.63834157	      2.88911230	    -26.16840463	    -29.40108576	     -5.97063017	      8.32006090	     -4.02698425	      8.59342193	     -7.85169474	     11.34232851
      4.31000000	    -10.13772991	      8.26389684	     -8.00776450	     -0.45452934	     -0.05576772	      0.63345876	     -3.92972743	     -9.25957467	      1.65084491	    -30.17012194	     -0.64617858	      8.18899939	     13.63110970	     40.38102294	      3.28646387	    -26.01978766	    -29.60599864	     -5.64444284	      8.23766432	     -3.55598835	      8.70263328	     -8.11329476	     11.13023358
      4.31500000	    -10.18806818	      8.44635954	     -7.81891897	     -0.44753205	     -0.05512029	      0.63276048	     -3.25261026	     -9.63414364	      1.56033235	    -31.82897215	     -2.35299348	      8.65342349	     14.27242836	     40.06853697	      3.68460711	    -25.90516815	    -29.71986368	     -5.31235768	      8.23194204	     -3.00058079	      8.79815829	     -8.35277840	     10.92002418
      4.32000000	    -10.24711241	      8.63147509	     -7.63913305	     -0.44063360	     -0.05439211	      0.63209915	     -2.50388773	     -9.99532380	      1.53576624	    -33.53055395	     -4.02242833	      8.99944321	     14.86116120	     39.71957014	      4.08903069	    -25.81696969	    -29.74040153	     -4.97740003	      8.25742653	     -2.43839312	      8.90121995	     -8.59712177	     10.72032634
      4.32500000	    -10.31383435	      8.80328761	     -7.47817277	     -0.43381233	     -0.05359488	      0.63143120	     -1.69213973	    -10.33218172	      1.57673503	    -35.25111804	     -5.62860022	      9.27686808	     15.48118668	     39.33926850	      4.48467407	    -25.74485847	    -29.68235995	     -4.63747863	      8.26107478	     -1.82025298	      9.01553520	     -8.81520646	     10.53539641
      4.33000000	    -10.37245020	      8.99320022	     -7.30094628	     -0.42713100	     -0.05276389	      0.63078456	     -0.82431475	    -10.67128087	      1.61098113	    -37.04234962	     -7.07185803	      9.40213631	     15.86979495	     38.93305627	      4.90482187	    -25.68448514	    -29.58667103	     -4.26490793	      8.39887301	     -1.37750807	      9.10465786	     -9.05771326	     10.33396023
      4.33500000	    -10.45183098	      9.19853891	     -7.13100892	     -0.42054166	     -0.05193326	      0.63013715	      0.12623777	    -11.01504502	      1.66798027	    -38.87341178	     -8.34587235	      9.41813221	     16.25098571	     38.52674825	      5.34364110	    -25.60927349	    -29.43217291	     -3.89477894	      8.54734239	     -0.94185953	      9.21914448	     -9.30768715	     10.17646250
